<svg width="273" height="274" viewBox="0 0 273 274" fill="none" xmlns="http://www.w3.org/2000/svg">
<g clip-path="url(#clip0_856_1290)">
<path d="M-0.00976562 0.358398H272.691V273.06H-0.00976562V0.358398Z" fill="#F7DF1E"/>
<path d="M71.6978 228.244L92.5658 215.61C96.5924 222.747 100.257 228.787 109.034 228.787C117.46 228.787 122.765 225.495 122.765 212.68V125.544H148.395V213.043C148.395 239.588 132.832 251.668 110.132 251.668C89.6364 251.679 77.7377 241.058 71.6978 228.244Z" fill="black"/>
<path d="M162.316 225.497L183.184 213.418C188.681 222.387 195.818 228.981 208.441 228.981C219.062 228.981 225.826 223.676 225.826 216.347C225.826 207.559 218.87 204.448 207.152 199.325L200.75 196.576C182.258 188.704 169.997 178.819 169.997 157.951C169.997 138.734 184.644 124.087 207.525 124.087C223.813 124.087 235.53 129.765 243.956 144.593L224.004 157.407C219.616 149.535 214.854 146.425 207.536 146.425C200.026 146.425 195.275 151.186 195.275 157.407C195.275 165.098 200.037 168.209 211.019 172.971L217.421 175.719C239.205 185.05 251.466 194.574 251.466 215.985C251.466 239.047 233.347 251.681 208.995 251.681C185.198 251.681 169.826 240.326 162.316 225.497Z" fill="black"/>
</g>
<defs>
<clipPath id="clip0_856_1290">
<rect width="272.702" height="272.702" fill="white" transform="translate(-0.00976562 0.358398)"/>
</clipPath>
</defs>
</svg>
